<?xml version="1.0" encoding="utf-8"?>
<!-- Generator: Adobe Illustrator 24.3.0, SVG Export Plug-In . SVG Version: 6.00 Build 0)  -->
<svg version="1.1" id="nhl-logo" xmlns="http://www.w3.org/2000/svg" xmlns:xlink="http://www.w3.org/1999/xlink" x="0px" y="0px"
	 viewBox="0 0 131.8 103.1" style="enable-background:new 0 0 131.8 103.1;" xml:space="preserve">
<style type="text/css">
	.st0{fill:#FFFFFF;}
</style>
<path class="st0" d="M35.9,36.1V18.6h-2.8v11.6L22.6,18.3h-1v17.5h2.8V24.2l10.5,11.9L35.9,36.1z"/>
<path class="st0" d="M51.6,35.8h2.8V18.6h-2.8v6.9H43v-6.9h-2.8v17.2H43v-7.9h8.7L51.6,35.8z"/>
<path class="st0" d="M29.1,59c-0.6,0.5-1.4,0.7-2.1,0.7c-1.9-0.1-3.6-1.1-4.5-2.7l-2,1.5c0.6,1.1,1.6,2.1,2.7,2.7
	c1.2,0.7,2.5,1,3.8,1c1.5,0.1,3-0.4,4.1-1.4c1.1-0.9,1.7-2.2,1.6-3.6c0-1-0.3-2-1-2.8c-0.9-0.9-1.9-1.6-3.1-2.1l-1.9-0.9
	c-0.7-0.3-1.3-0.7-1.9-1.1c-0.4-0.3-0.6-0.8-0.6-1.4c-0.1-0.6,0.2-1.2,0.7-1.6c0.5-0.4,1.2-0.6,1.9-0.5c1.5,0,2.9,0.8,3.6,2.1
	l1.9-1.5c-0.5-0.9-1.3-1.7-2.3-2.2c-1-0.6-2.1-0.9-3.3-0.8c-1.4-0.1-2.8,0.4-3.9,1.2c-1,0.8-1.6,2.1-1.6,3.4c0,1,0.4,2,1.1,2.8
	c0.9,0.9,1.9,1.5,3,2l1.9,0.9c0.7,0.3,1.3,0.7,1.9,1.2c0.4,0.4,0.6,0.9,0.6,1.4C29.9,58,29.6,58.6,29.1,59z"/>
<path class="st0" d="M43,61.9V47.1h5.8v-2.5H34.5v2.5h5.8v14.7H43z"/>
<path class="st0" d="M63.1,59.4h-8.9V54h6.4v-2.4h-6.4v-4.4h8.5v-2.5H51.4v17.2h11.6V59.4z"/>
<path class="st0" d="M90.2,44.7h-5.4v17.2h5.4c2.5,0.1,5-0.7,6.8-2.4c1.7-1.6,2.6-3.9,2.6-6.2c0.1-2.3-0.9-4.6-2.6-6.2
	C95.1,45.4,92.7,44.5,90.2,44.7z M94.9,57.7c-1.3,1.2-3,1.8-4.8,1.7h-2.6V47.2h2.6c1.7-0.1,3.5,0.5,4.8,1.7c1.2,1.2,1.8,2.8,1.8,4.4
	C96.8,54.9,96.1,56.5,94.9,57.7z"/>
<path class="st0" d="M105.6,54h6.4v-2.4h-6.4v-4.4h8.5v-2.5h-11.3v17.2h11.6v-2.5h-8.9L105.6,54z"/>
<path class="st0" d="M129.1,44.7v11.6l-10.5-11.9h-1v17.5h2.8V50.2l10.5,11.9h0.9V44.7H129.1z"/>
<path class="st0" d="M0.1,80.4h80.4V44.7h-2.9v11.5L67.2,44.4h-1v17.5H69V50.2l8.6,9.8v17.5H3.1V2.9h74.5v30.4H61.5V18.6h-2.8v17.2
	h15.1l0,0h6.7v-2.5l0,0V0H0.1V80.4z"/>
<path class="st0" d="M3.8,92.5c-0.8,0-1.6,0.3-2.2,0.9v-4.7H0v11.4h1.6v-4.4c0-0.5,0.2-0.9,0.5-1.2C2.4,94.2,2.8,94,3.3,94
	c0.4,0,0.9,0.2,1.2,0.5c0.3,0.3,0.5,0.8,0.4,1.3v4.4h1.6v-4.7c0-0.8-0.2-1.6-0.8-2.1C5.3,92.8,4.5,92.5,3.8,92.5z"/>
<path class="st0" d="M12.2,92.5c-1,0-2.1,0.4-2.8,1.1c-1.5,1.5-1.5,4,0,5.5c1.6,1.5,4.1,1.5,5.6,0c1.5-1.5,1.5-4,0-5.5c0,0,0,0,0,0
	C14.3,92.9,13.3,92.5,12.2,92.5z M13.9,98.2c-0.4,0.5-1,0.7-1.7,0.7c-0.6,0-1.2-0.2-1.7-0.7c-0.9-1-0.9-2.5,0-3.5
	c0.4-0.5,1-0.7,1.7-0.7c0.6,0,1.2,0.3,1.6,0.7C14.8,95.7,14.8,97.2,13.9,98.2L13.9,98.2z"/>
<path class="st0" d="M23.9,93.8c-0.6-0.8-1.6-1.3-2.6-1.2c-1,0-1.9,0.3-2.6,1c-0.7,0.7-1,1.7-1,2.7c0,1,0.3,2,1,2.7
	c0.7,0.7,1.6,1.1,2.6,1.1c0.9,0.1,1.9-0.3,2.5-1v0.5c0,0.6-0.2,1.2-0.6,1.6c-0.5,0.4-1,0.6-1.6,0.5c-1,0-1.9-0.4-2.6-1.1l-0.9,1.1
	c1,0.9,2.3,1.4,3.6,1.4c1,0,2-0.3,2.7-1c0.7-0.7,1.1-1.7,1-2.7v-6.7h-1.5L23.9,93.8L23.9,93.8z M23.1,98c-0.4,0.4-1,0.6-1.6,0.6
	c-0.6,0-1.2-0.2-1.6-0.6c-0.4-0.5-0.7-1.1-0.6-1.7c-0.1-1.2,0.9-2.2,2.1-2.3c0.1,0,0.1,0,0.2,0c0.6,0,1.2,0.2,1.6,0.6
	c0.5,0.4,0.7,1.1,0.7,1.7C23.8,96.9,23.5,97.6,23.1,98z"/>
<path class="st0" d="M31,92.5c-1,0-2,0.4-2.7,1.1c-0.7,0.7-1.1,1.7-1.1,2.8c0,1,0.4,2,1.1,2.8c0.8,0.7,1.8,1.1,2.9,1.1
	c1.1,0,2.2-0.4,3-1.2L33.4,98c-0.6,0.6-1.4,0.9-2.2,0.9c-0.6,0-1.2-0.2-1.6-0.5c-0.4-0.4-0.7-0.9-0.8-1.4h5.6c0.1-0.3,0.1-0.7,0.1-1
	c0-0.9-0.3-1.8-1-2.4C32.8,92.8,31.9,92.5,31,92.5z M28.8,95.7c0.1-0.5,0.4-1,0.8-1.3c0.4-0.3,0.9-0.5,1.4-0.5c0.5,0,1,0.2,1.3,0.5
	c0.4,0.3,0.6,0.8,0.6,1.3H28.8z"/>
<path class="st0" d="M39.3,95.8l-0.7-0.3c-0.3-0.1-0.5-0.2-0.8-0.4c-0.1-0.1-0.2-0.3-0.2-0.5c0-0.5,0.3-0.7,1-0.7
	c0.7,0,1.3,0.3,1.8,0.8l0.9-1c-0.6-0.8-1.6-1.2-2.6-1.2c-0.7,0-1.3,0.2-1.9,0.6c-0.5,0.4-0.8,1-0.7,1.6c0,0.5,0.2,1,0.5,1.3
	c0.4,0.4,0.9,0.7,1.5,0.9l0.8,0.3c0.3,0.1,0.5,0.2,0.8,0.4c0.2,0.1,0.3,0.3,0.2,0.5c0,0.3-0.1,0.5-0.3,0.6c-0.3,0.1-0.6,0.2-0.9,0.2
	c-0.8,0-1.6-0.4-2.1-1.1l-0.9,1c0.7,0.9,1.8,1.5,3,1.4c0.7,0,1.4-0.2,2-0.6c0.5-0.4,0.8-1.1,0.8-1.8c0-0.5-0.2-1-0.5-1.3
	C40.4,96.3,39.9,96,39.3,95.8z"/>
<path class="st0" d="M46.7,94c0.8,0,1.6,0.4,2,1.1l1.1-0.9c-0.3-0.5-0.8-1-1.3-1.3c-0.6-0.3-1.2-0.5-1.8-0.5c-1,0-2.1,0.4-2.8,1.1
	c-0.8,0.7-1.2,1.7-1.2,2.8c0,1,0.4,2.1,1.2,2.8c0.7,0.7,1.8,1.2,2.8,1.1c1.3,0,2.5-0.6,3.2-1.7l-1.1-0.9c-0.4,0.7-1.2,1.1-2,1.1
	c-0.6,0-1.2-0.2-1.7-0.7c-0.9-1-0.9-2.5,0-3.5C45.5,94.2,46.1,94,46.7,94z"/>
<path class="st0" d="M55.4,92.5c-0.8,0-1.6,0.3-2.2,0.9v-4.7h-1.6v11.4h1.6v-4.4c0-0.5,0.2-0.9,0.5-1.2c0.3-0.3,0.8-0.5,1.2-0.5
	c0.4,0,0.9,0.2,1.2,0.5c0.3,0.3,0.5,0.8,0.4,1.3v4.4h1.6v-4.7c0-0.8-0.2-1.6-0.8-2.1C56.9,92.8,56.1,92.5,55.4,92.5z"/>
<path class="st0" d="M63.8,92.5c-1.1,0-2.1,0.4-2.8,1.1c-1.5,1.5-1.5,4,0,5.5c1.6,1.5,4.1,1.5,5.6,0c1.5-1.5,1.5-4,0-5.5
	c0,0,0,0,0,0C65.9,92.9,64.9,92.5,63.8,92.5z M65.5,98.2c-0.4,0.5-1,0.7-1.7,0.7c-0.6,0-1.2-0.2-1.7-0.7c-0.9-1-0.9-2.5,0-3.5
	c0.4-0.5,1-0.7,1.7-0.7c0.6,0,1.2,0.3,1.7,0.7c0.4,0.5,0.7,1.1,0.7,1.7C66.2,97.1,65.9,97.7,65.5,98.2z"/>
<path class="st0" d="M73.1,92.5c-1,0-2.1,0.4-2.8,1.1c-1.5,1.5-1.5,4,0,5.5c1.6,1.5,4.1,1.5,5.6,0c1.5-1.5,1.5-4,0-5.5c0,0,0,0,0,0
	C75.2,92.9,74.1,92.5,73.1,92.5z M74.8,98.2c-0.4,0.5-1,0.7-1.7,0.7c-0.6,0-1.2-0.2-1.7-0.7c-0.9-1-0.9-2.5,0-3.5
	c0.4-0.5,1-0.7,1.7-0.7c0.6,0,1.2,0.3,1.7,0.7c0.4,0.5,0.7,1.1,0.7,1.7C75.4,97.1,75.2,97.7,74.8,98.2z"/>
<path class="st0" d="M80.5,88.7h-1.6v11.4h1.6V88.7z"/>
</svg>
